<svg width="106" height="15" viewBox="0 0 106 15" fill="none" xmlns="http://www.w3.org/2000/svg">
<rect width="106" height="15" />
<path d="M3.12 10.452L0.684 7.8L3.12 5.148H5.7L3.252 7.8L5.7 10.452H3.12ZM19.4363 3.576V12H17.3843V6.948L15.5003 12H13.8443L11.9483 6.936V12H9.89634V3.576H12.3203L14.6843 9.408L17.0243 3.576H19.4363ZM20.504 8.64C20.504 7.952 20.632 7.348 20.888 6.828C21.152 6.308 21.508 5.908 21.956 5.628C22.404 5.348 22.904 5.208 23.456 5.208C23.928 5.208 24.34 5.304 24.692 5.496C25.052 5.688 25.328 5.94 25.52 6.252V5.304H27.572V12H25.52V11.052C25.32 11.364 25.04 11.616 24.68 11.808C24.328 12 23.916 12.096 23.444 12.096C22.9 12.096 22.404 11.956 21.956 11.676C21.508 11.388 21.152 10.984 20.888 10.464C20.632 9.936 20.504 9.328 20.504 8.64ZM25.52 8.652C25.52 8.14 25.376 7.736 25.088 7.44C24.808 7.144 24.464 6.996 24.056 6.996C23.648 6.996 23.3 7.144 23.012 7.44C22.732 7.728 22.592 8.128 22.592 8.64C22.592 9.152 22.732 9.56 23.012 9.864C23.3 10.16 23.648 10.308 24.056 10.308C24.464 10.308 24.808 10.16 25.088 9.864C25.376 9.568 25.52 9.164 25.52 8.652ZM32.7885 10.26V12H31.7445C31.0005 12 30.4205 11.82 30.0045 11.46C29.5885 11.092 29.3805 10.496 29.3805 9.672V7.008H28.5645V5.304H29.3805V3.672H31.4325V5.304H32.7765V7.008H31.4325V9.696C31.4325 9.896 31.4805 10.04 31.5765 10.128C31.6725 10.216 31.8325 10.26 32.0565 10.26H32.7885ZM38.0475 5.232C38.8155 5.232 39.4315 5.488 39.8955 6C40.3595 6.504 40.5915 7.2 40.5915 8.088V12H38.5515V8.364C38.5515 7.916 38.4355 7.568 38.2035 7.32C37.9715 7.072 37.6595 6.948 37.2675 6.948C36.8755 6.948 36.5635 7.072 36.3315 7.32C36.0995 7.568 35.9835 7.916 35.9835 8.364V12H33.9315V3.12H35.9835V6.204C36.1915 5.908 36.4755 5.672 36.8355 5.496C37.1955 5.32 37.5995 5.232 38.0475 5.232ZM48.3294 8.544C48.3294 8.736 48.3174 8.936 48.2934 9.144H43.6494C43.6814 9.56 43.8134 9.88 44.0454 10.104C44.2854 10.32 44.5774 10.428 44.9214 10.428C45.4334 10.428 45.7894 10.212 45.9894 9.78H48.1734C48.0614 10.22 47.8574 10.616 47.5614 10.968C47.2734 11.32 46.9094 11.596 46.4694 11.796C46.0294 11.996 45.5374 12.096 44.9934 12.096C44.3374 12.096 43.7534 11.956 43.2414 11.676C42.7294 11.396 42.3294 10.996 42.0414 10.476C41.7534 9.956 41.6094 9.348 41.6094 8.652C41.6094 7.956 41.7494 7.348 42.0294 6.828C42.3174 6.308 42.7174 5.908 43.2294 5.628C43.7414 5.348 44.3294 5.208 44.9934 5.208C45.6414 5.208 46.2174 5.344 46.7214 5.616C47.2254 5.888 47.6174 6.276 47.8974 6.78C48.1854 7.284 48.3294 7.872 48.3294 8.544ZM46.2294 8.004C46.2294 7.652 46.1094 7.372 45.8694 7.164C45.6294 6.956 45.3294 6.852 44.9694 6.852C44.6254 6.852 44.3334 6.952 44.0934 7.152C43.8614 7.352 43.7174 7.636 43.6614 8.004H46.2294ZM56.024 5.304V12H53.972V11.088C53.764 11.384 53.48 11.624 53.12 11.808C52.768 11.984 52.376 12.072 51.944 12.072C51.432 12.072 50.98 11.96 50.588 11.736C50.196 11.504 49.892 11.172 49.676 10.74C49.46 10.308 49.352 9.8 49.352 9.216V5.304H51.392V8.94C51.392 9.388 51.508 9.736 51.74 9.984C51.972 10.232 52.284 10.356 52.676 10.356C53.076 10.356 53.392 10.232 53.624 9.984C53.856 9.736 53.972 9.388 53.972 8.94V5.304H56.024ZM60.2219 12.096C59.6379 12.096 59.1179 11.996 58.6619 11.796C58.2059 11.596 57.8459 11.324 57.5819 10.98C57.3179 10.628 57.1699 10.236 57.1379 9.804H59.1659C59.1899 10.036 59.2979 10.224 59.4899 10.368C59.6819 10.512 59.9179 10.584 60.1979 10.584C60.4539 10.584 60.6499 10.536 60.7859 10.44C60.9299 10.336 61.0019 10.204 61.0019 10.044C61.0019 9.852 60.9019 9.712 60.7019 9.624C60.5019 9.528 60.1779 9.424 59.7299 9.312C59.2499 9.2 58.8499 9.084 58.5299 8.964C58.2099 8.836 57.9339 8.64 57.7019 8.376C57.4699 8.104 57.3539 7.74 57.3539 7.284C57.3539 6.9 57.4579 6.552 57.6659 6.24C57.8819 5.92 58.1939 5.668 58.6019 5.484C59.0179 5.3 59.5099 5.208 60.0779 5.208C60.9179 5.208 61.5779 5.416 62.0579 5.832C62.5459 6.248 62.8259 6.8 62.8979 7.488H61.0019C60.9699 7.256 60.8659 7.072 60.6899 6.936C60.5219 6.8 60.2979 6.732 60.0179 6.732C59.7779 6.732 59.5939 6.78 59.4659 6.876C59.3379 6.964 59.2739 7.088 59.2739 7.248C59.2739 7.44 59.3739 7.584 59.5739 7.68C59.7819 7.776 60.1019 7.872 60.5339 7.968C61.0299 8.096 61.4339 8.224 61.7459 8.352C62.0579 8.472 62.3299 8.672 62.5619 8.952C62.8019 9.224 62.9259 9.592 62.9339 10.056C62.9339 10.448 62.8219 10.8 62.5979 11.112C62.3819 11.416 62.0659 11.656 61.6499 11.832C61.2419 12.008 60.7659 12.096 60.2219 12.096ZM71.3043 0.599999L68.0883 14.244H66.1083L69.3243 0.599999H71.3043ZM100.154 5.148H102.734L105.17 7.8L102.734 10.452H100.154L102.602 7.8L100.154 5.148Z" fill="white"/>
<path d="M76.9 3.576C77.788 3.576 78.564 3.752 79.228 4.104C79.892 4.456 80.404 4.952 80.764 5.592C81.132 6.224 81.316 6.956 81.316 7.788C81.316 8.612 81.132 9.344 80.764 9.984C80.404 10.624 79.888 11.12 79.216 11.472C78.552 11.824 77.78 12 76.9 12H73.744V3.576H76.9ZM76.768 10.224C77.544 10.224 78.148 10.012 78.58 9.588C79.012 9.164 79.228 8.564 79.228 7.788C79.228 7.012 79.012 6.408 78.58 5.976C78.148 5.544 77.544 5.328 76.768 5.328H75.796V10.224H76.768ZM88.7747 8.544C88.7747 8.736 88.7628 8.936 88.7388 9.144H84.0948C84.1268 9.56 84.2588 9.88 84.4908 10.104C84.7308 10.32 85.0228 10.428 85.3668 10.428C85.8788 10.428 86.2348 10.212 86.4348 9.78H88.6188C88.5068 10.22 88.3028 10.616 88.0068 10.968C87.7188 11.32 87.3548 11.596 86.9148 11.796C86.4748 11.996 85.9828 12.096 85.4388 12.096C84.7828 12.096 84.1988 11.956 83.6868 11.676C83.1748 11.396 82.7748 10.996 82.4868 10.476C82.1988 9.956 82.0548 9.348 82.0548 8.652C82.0548 7.956 82.1948 7.348 82.4748 6.828C82.7628 6.308 83.1628 5.908 83.6748 5.628C84.1868 5.348 84.7748 5.208 85.4388 5.208C86.0868 5.208 86.6628 5.344 87.1668 5.616C87.6708 5.888 88.0628 6.276 88.3428 6.78C88.6308 7.284 88.7747 7.872 88.7747 8.544ZM86.6748 8.004C86.6748 7.652 86.5548 7.372 86.3148 7.164C86.0748 6.956 85.7748 6.852 85.4148 6.852C85.0708 6.852 84.7788 6.952 84.5388 7.152C84.3068 7.352 84.1628 7.636 84.1068 8.004H86.6748ZM92.8693 10.08L94.3213 5.304H96.5053L94.1293 12H91.5973L89.2213 5.304H91.4173L92.8693 10.08Z" fill="url(#paint0_linear_0_1)"/>
<defs>
<linearGradient id="paint0_linear_0_1" x1="53" y1="6" x2="127" y2="7" gradientUnits="userSpaceOnUse">
<stop stop-color="#000AFA"/>
<stop offset="1" stop-color="#00FFD1"/>
</linearGradient>
</defs>
</svg>
